<?xml version="1.0" standalone="no"?>
<!DOCTYPE svg PUBLIC "-//W3C//DTD SVG 20010904//EN"
 "http://www.w3.org/TR/2001/REC-SVG-20010904/DTD/svg10.dtd">
<svg version="1.0" xmlns="http://www.w3.org/2000/svg"
 width="852.000000pt" height="907.000000pt" viewBox="0 0 852.000000 907.000000"
 preserveAspectRatio="xMidYMid meet">
<metadata>
Created by potrace 1.16, written by Peter Selinger 2001-2019
</metadata>
<g transform="translate(0.000000,907.000000) scale(0.100000,-0.100000)"
fill="#000000" stroke="none">
<path d="M925 8367 c-4 -172 -5 -501 -3 -732 3 -376 5 -424 20 -447 9 -14 61
-49 115 -78 102 -55 260 -149 568 -337 212 -129 435 -255 521 -293 l61 -28 6
547 c4 300 7 638 7 751 l0 205 -107 54 c-59 29 -285 160 -503 290 -407 245
-524 312 -621 355 l-57 25 -7 -312z"/>
<path d="M5050 7099 c-708 -393 -1874 -1061 -2280 -1306 l-115 -69 -6 -585
c-3 -321 -7 -996 -7 -1499 l-1 -915 607 -349 c334 -193 981 -565 1437 -829
2057 -1187 1774 -1027 1815 -1027 73 0 212 69 495 245 337 210 610 367 729
420 l56 25 -15 36 c-8 20 -15 38 -15 39 0 2 -30 20 -67 41 -63 34 -243 137
-880 499 -134 75 -243 141 -243 145 0 14 82 81 163 135 82 53 224 133 649 368
125 69 270 153 321 186 l94 61 6 862 c4 475 7 1151 7 1503 l0 640 -78 40
c-117 60 -464 260 -1122 648 -1008 593 -1321 767 -1377 767 -16 -1 -92 -36
-173 -81z m455 -1569 c524 -287 888 -504 968 -578 l27 -26 0 -725 0 -726 -63
-34 c-34 -19 -210 -121 -392 -226 -600 -350 -776 -445 -824 -445 -42 0 -583
299 -1071 592 l-205 123 -1 718 c-1 396 0 727 3 737 7 25 153 118 428 273 132
74 319 181 415 237 177 104 374 207 420 220 18 5 39 0 75 -20 28 -15 127 -69
220 -120z"/>
<path d="M930 5201 l0 -1488 253 -151 c452 -270 1012 -581 1023 -569 1 1 6
671 10 1489 l7 1486 -74 34 c-91 42 -195 102 -644 371 -318 191 -544 317 -566
317 -5 0 -9 -659 -9 -1489z"/>
</g>
</svg>
